<?xml version="1.0" encoding="iso-8859-1"?>
<!-- Uploaded to: SVG Repo, www.svgrepo.com, Generator: SVG Repo Mixer Tools -->
<!DOCTYPE svg PUBLIC "-//W3C//DTD SVG 1.1//EN" "http://www.w3.org/Graphics/SVG/1.1/DTD/svg11.dtd">
<svg fill="#000000" version="1.1" id="Capa_1" xmlns="http://www.w3.org/2000/svg" xmlns:xlink="http://www.w3.org/1999/xlink" 
	 width="800px" height="800px" viewBox="0 0 31.826 31.826"
	 xml:space="preserve">
<g>
	<g>
		<path d="M15.913,0C7.138,0,0,7.139,0,15.913c0,8.774,7.138,15.913,15.913,15.913c8.776,0,15.913-7.139,15.913-15.913
			C31.826,7.139,24.689,0,15.913,0z M15.913,29.294c-7.379,0-13.38-6.002-13.38-13.381c0-7.377,6.001-13.38,13.38-13.38
			c7.379,0,13.381,6.003,13.381,13.38C29.294,23.292,23.292,29.294,15.913,29.294z"/>
		<circle cx="21.332" cy="17.888" r="3.874"/>
		<circle cx="12.699" cy="7.868" r="2.877"/>
		<circle cx="9.607" cy="17.493" r="3.479"/>
		<circle cx="15.714" cy="24.333" r="1.466"/>
		<circle cx="21.941" cy="9.898" r="1.583"/>
		<circle cx="16.178" cy="13.885" r="1.341"/>
	</g>
</g>
</svg>