<?xml version="1.0" encoding="iso-8859-1"?>
<!-- Uploaded to: SVG Repo, www.svgrepo.com, Generator: SVG Repo Mixer Tools -->
<!DOCTYPE svg PUBLIC "-//W3C//DTD SVG 1.1//EN" "http://www.w3.org/Graphics/SVG/1.1/DTD/svg11.dtd">
<svg fill="#000000" version="1.1" id="Capa_1" xmlns="http://www.w3.org/2000/svg" xmlns:xlink="http://www.w3.org/1999/xlink" 
	 width="800px" height="800px" viewBox="0 0 32.012 32.012"
	 xml:space="preserve">
<g>
	<g>
		<path d="M30.062,9.134c0.604,0,1.094-0.49,1.094-1.094V7.71c0-0.604-0.49-1.094-1.094-1.094H28.28h-7.323V6.613V1.365
			C20.957,0.611,20.346,0,19.592,0h-7.112c-0.787,0-1.425,0.638-1.425,1.426v5.187v0.004H3.755H1.947
			c-0.604,0-1.094,0.49-1.094,1.094v0.33c0,0.604,0.49,1.094,1.094,1.094h1.809l0,0v10.03l0,0H1.947
			c-0.604,0-1.094,0.489-1.094,1.094v0.331c0,0.604,0.49,1.094,1.094,1.094h1.809l0,0v9.234c0,0.604,0.49,1.094,1.094,1.094h7.912
			v-6.359c0-0.707,0.573-1.28,1.28-1.28h3.927c0.706,0,1.28,0.573,1.28,1.28v6.359h7.955c0.604,0,1.094-0.49,1.094-1.094v-9.234
			h1.766c0.604,0,1.094-0.49,1.094-1.094v-0.331c0-0.604-0.49-1.094-1.094-1.094h-1.766V9.134H30.062z M12.165,2.537
			c0-0.788,0.638-1.426,1.425-1.426h4.874c0.787,0,1.426,0.638,1.426,1.426v4.08h-7.725L12.165,2.537L12.165,2.537z M23.478,13.574
			c-0.427,0-0.771-0.346-0.771-0.772v-1.616c0-0.426,0.344-0.772,0.771-0.772h1.873c0.426,0,0.772,0.345,0.772,0.772v1.616
			c0,0.426-0.347,0.772-0.771,0.772H23.478z M25.351,15.495c0.426,0,0.771,0.345,0.771,0.772v1.615c0,0.426-0.346,0.771-0.771,0.771
			h-1.873c-0.427,0-0.771-0.346-0.771-0.771v-1.615c0-0.426,0.344-0.772,0.771-0.772H25.351z M20.186,15.495
			c0.426,0,0.771,0.345,0.771,0.772v1.615c0,0.426-0.347,0.771-0.771,0.771H7.43c-0.426,0-0.771-0.346-0.771-0.771v-1.615
			c0-0.426,0.345-0.772,0.771-0.772H20.186z M7.43,13.574c-0.426,0-0.771-0.346-0.771-0.772v-1.616c0-0.426,0.345-0.772,0.771-0.772
			h7.078c0.426,0,0.772,0.345,0.772,0.772v1.616c0,0.426-0.346,0.772-0.771,0.772H7.43z M17.887,13.574
			c-0.426,0-0.771-0.346-0.771-0.772v-1.616c0-0.426,0.345-0.772,0.771-0.772h2.298c0.426,0,0.772,0.345,0.772,0.772v1.616
			c0,0.426-0.347,0.772-0.771,0.772H17.887z M10.072,26.811c0,0.398-0.322,0.721-0.72,0.721H7.377c-0.397,0-0.719-0.322-0.719-0.721
			v-1.72c0-0.397,0.322-0.719,0.719-0.719h1.975c0.398,0,0.72,0.321,0.72,0.719V26.811z M26.123,26.811
			c0,0.398-0.322,0.721-0.721,0.721h-1.977c-0.397,0-0.719-0.322-0.719-0.721v-1.72c0-0.397,0.322-0.719,0.719-0.719h1.977
			c0.396,0,0.721,0.321,0.721,0.719V26.811z"/>
		<polygon points="16.773,3.373 15.237,3.373 15.237,1.794 14.298,1.794 14.298,5.934 15.237,5.934 15.237,4.184 16.773,4.184 
			16.773,5.934 17.713,5.934 17.713,1.794 16.773,1.794 		"/>
	</g>
</g>
</svg>