<?xml version="1.0" encoding="iso-8859-1"?>
<!-- Uploaded to: SVG Repo, www.svgrepo.com, Generator: SVG Repo Mixer Tools -->
<!DOCTYPE svg PUBLIC "-//W3C//DTD SVG 1.1//EN" "http://www.w3.org/Graphics/SVG/1.1/DTD/svg11.dtd">
<svg fill="#000000" version="1.1" id="Capa_1" xmlns="http://www.w3.org/2000/svg" xmlns:xlink="http://www.w3.org/1999/xlink" 
	 width="800px" height="800px" viewBox="0 0 31.876 31.876"
	 xml:space="preserve">
<g>
	<path d="M29.483,5.019c-2.685-3.222-10.254-5.497-16.646-3.674C5.87,3.332,2.49,7.787,2.25,15.752l-2.153,4.396
		c-0.12,0.244-0.128,0.528-0.022,0.779c0.105,0.251,0.313,0.444,0.572,0.53l1.5,0.497c-0.188,7.378-0.118,9.225,7.229,9.225
		c7.527,0,6.559-5.532,15.648-6.611C31.742,23.768,34.091,10.547,29.483,5.019z M25.643,18.481c-1.583,1.112-2.734,1.151-3.66,1.182
		c-0.992,0.035-1.775,0.061-3.124,1.478c-0.134,0.142-0.316,0.213-0.497,0.213c-0.17,0-0.341-0.062-0.473-0.188
		c-0.275-0.264-0.286-0.697-0.025-0.973c1.735-1.821,2.924-1.863,4.071-1.902c0.833-0.029,1.623-0.058,2.811-0.86
		c-0.955,0.129-2.013-0.132-3.054-0.896c-3.271-2.398-8.024-0.123-8.024-4.179c0-4.053,3.284-7.338,7.337-7.338
		c4.056,0,7.343,3.285,7.343,7.338c0,0.006-0.001,0.011-0.001,0.015C28.445,13.015,28.78,16.277,25.643,18.481z"/>
</g>
</svg>