<?xml version="1.0" encoding="iso-8859-1"?>
<!-- Uploaded to: SVG Repo, www.svgrepo.com, Generator: SVG Repo Mixer Tools -->
<!DOCTYPE svg PUBLIC "-//W3C//DTD SVG 1.1//EN" "http://www.w3.org/Graphics/SVG/1.1/DTD/svg11.dtd">
<svg fill="#000000" version="1.1" id="Capa_1" xmlns="http://www.w3.org/2000/svg" xmlns:xlink="http://www.w3.org/1999/xlink" 
	 width="800px" height="800px" viewBox="0 0 31.613 31.613"
	 xml:space="preserve">
<g>
	<g>
		<path d="M5.763,0C4.286,0,3.089,1.196,3.089,2.674v26.266c0,1.477,1.197,2.674,2.674,2.674h20.087
			c1.477,0,2.674-1.196,2.674-2.674V2.674C28.524,1.197,27.327,0,25.851,0H5.763z M10.958,27.646c-1.854,0-3.358-1.496-3.358-3.346
			c0-1.846,1.504-3.345,3.358-3.345c1.856,0,3.36,1.499,3.36,3.345C14.319,26.148,12.815,27.646,10.958,27.646z M10.958,18.791
			c-1.854,0-3.358-1.498-3.358-3.344c0-1.847,1.504-3.346,3.358-3.346c1.856,0,3.36,1.499,3.36,3.346
			C14.319,17.293,12.815,18.791,10.958,18.791z M10.958,9.938C9.104,9.938,7.6,8.44,7.6,6.592c0-1.846,1.504-3.343,3.358-3.343
			c1.856,0,3.36,1.497,3.36,3.343C14.319,8.439,12.815,9.938,10.958,9.938z M21.121,27.646c-1.854,0-3.358-1.496-3.358-3.346
			c0-1.846,1.504-3.345,3.358-3.345c1.856,0,3.358,1.499,3.358,3.345C24.479,26.148,22.978,27.646,21.121,27.646z M21.121,18.791
			c-1.854,0-3.358-1.498-3.358-3.344c0-1.847,1.504-3.346,3.358-3.346c1.856,0,3.358,1.499,3.358,3.346
			C24.479,17.293,22.978,18.791,21.121,18.791z M21.121,9.938c-1.854,0-3.358-1.498-3.358-3.346c0-1.846,1.504-3.343,3.358-3.343
			c1.856,0,3.358,1.497,3.358,3.343C24.479,8.439,22.978,9.938,21.121,9.938z"/>
		<path d="M12.641,6.604c0,0.007,0,0.698-0.496,1.178c-0.231,0.222-0.625,0.487-1.187,0.487c-0.36,0-0.652,0.293-0.652,0.654
			c0,0.361,0.292,0.653,0.652,0.653c0.999,0,1.69-0.464,2.095-0.856c0.917-0.887,0.896-2.096,0.893-2.145
			c-0.009-0.361-0.354-0.662-0.664-0.633C12.924,5.949,12.638,6.246,12.641,6.604z"/>
		<circle cx="9.459" cy="8.341" r="0.715"/>
		<path d="M22.804,6.604c0,0.007,0,0.698-0.496,1.178c-0.231,0.222-0.625,0.487-1.187,0.487c-0.36,0-0.653,0.293-0.653,0.654
			c0,0.361,0.293,0.653,0.653,0.653c0.999,0,1.69-0.464,2.095-0.856c0.918-0.887,0.896-2.096,0.893-2.145
			c-0.01-0.361-0.354-0.662-0.664-0.633C23.086,5.949,22.8,6.246,22.804,6.604z"/>
		<circle cx="19.622" cy="8.341" r="0.715"/>
		<path d="M12.641,15.459c0,0.007,0,0.699-0.496,1.178c-0.231,0.223-0.625,0.486-1.187,0.486c-0.36,0-0.652,0.294-0.652,0.656
			c0,0.359,0.292,0.652,0.652,0.652c0.999,0,1.69-0.466,2.095-0.855c0.917-0.889,0.896-2.096,0.893-2.146
			c-0.009-0.357-0.354-0.633-0.664-0.633C12.924,14.804,12.638,15.1,12.641,15.459z"/>
		<circle cx="9.459" cy="17.195" r="0.714"/>
		<path d="M22.804,15.459c0,0.007,0,0.699-0.496,1.178c-0.231,0.223-0.625,0.486-1.187,0.486c-0.36,0-0.653,0.294-0.653,0.656
			c0,0.359,0.293,0.652,0.653,0.652c0.999,0,1.69-0.466,2.095-0.855c0.918-0.889,0.896-2.096,0.893-2.146
			c-0.01-0.357-0.354-0.633-0.664-0.633C23.086,14.804,22.8,15.1,22.804,15.459z"/>
		<circle cx="19.622" cy="17.195" r="0.714"/>
		<path d="M12.641,24.314c0,0.008,0,0.699-0.496,1.179c-0.231,0.222-0.625,0.487-1.187,0.487c-0.36,0-0.652,0.291-0.652,0.653
			c0,0.359,0.292,0.651,0.652,0.651c0.999,0,1.69-0.463,2.095-0.854c0.917-0.886,0.896-2.095,0.893-2.146
			c-0.009-0.361-0.354-0.653-0.664-0.633C12.924,23.659,12.638,23.955,12.641,24.314z"/>
		<circle cx="9.459" cy="26.05" r="0.714"/>
		<path d="M22.804,24.314c0,0.008,0,0.699-0.496,1.179c-0.231,0.222-0.625,0.487-1.187,0.487c-0.36,0-0.653,0.291-0.653,0.653
			c0,0.359,0.293,0.651,0.653,0.651c0.999,0,1.69-0.463,2.095-0.854c0.918-0.886,0.896-2.095,0.893-2.146
			c-0.01-0.361-0.354-0.653-0.664-0.633C23.086,23.659,22.8,23.955,22.804,24.314z"/>
		<circle cx="19.622" cy="26.05" r="0.714"/>
	</g>
</g>
</svg>